<?xml version="1.0" encoding="UTF-8" standalone="no"?>
<!-- Created with Inkscape (http://www.inkscape.org/) -->

<svg
   xmlns:dc="http://purl.org/dc/elements/1.1/"
   xmlns:cc="http://creativecommons.org/ns#"
   xmlns:rdf="http://www.w3.org/1999/02/22-rdf-syntax-ns#"
   xmlns:svg="http://www.w3.org/2000/svg"
   xmlns="http://www.w3.org/2000/svg"
   xmlns:sodipodi="http://sodipodi.sourceforge.net/DTD/sodipodi-0.dtd"
   xmlns:inkscape="http://www.inkscape.org/namespaces/inkscape"
   id="svg3055"
   version="1.1"
   inkscape:version="0.48.4 r9939"
   width="876"
   height="873"
   sodipodi:docname="sun2.png">
  <metadata
     id="metadata3061">
    <rdf:RDF>
      <cc:Work
         rdf:about="">
        <dc:format>image/svg+xml</dc:format>
        <dc:type
           rdf:resource="http://purl.org/dc/dcmitype/StillImage" />
        <dc:title></dc:title>
      </cc:Work>
    </rdf:RDF>
  </metadata>
  <defs
     id="defs3059" />
  <sodipodi:namedview
     pagecolor="#ffffff"
     bordercolor="#666666"
     borderopacity="1"
     objecttolerance="10"
     gridtolerance="10"
     guidetolerance="10"
     inkscape:pageopacity="0"
     inkscape:pageshadow="2"
     inkscape:window-width="640"
     inkscape:window-height="480"
     id="namedview3057"
     showgrid="false"
     inkscape:zoom="0.27033219"
     inkscape:cx="438"
     inkscape:cy="436.5"
     inkscape:window-x="63"
     inkscape:window-y="34"
     inkscape:window-maximized="0"
     inkscape:current-layer="svg3055" />
  <g
     id="g3522">
    <path
       style="fill:#ffffff"
       d="M 0,436.5 0,0 438,0 876,0 876,436.5 876,873 438,873 0,873 0,436.5 z"
       id="path3526"
       inkscape:connector-curvature="0" />
    <path
       style="fill:#fef500"
       d="m 261.74797,871.63399 c -4.61212,-1.72057 -9.9607,-5.71571 -12.55993,-9.3817 -4.94825,-6.97908 -8.11038,-23.47036 -6.43686,-33.56976 1.33293,-8.04397 42.86854,-112.81601 47.248,-119.18134 3.87369,-5.63021 11.0133,-11.68513 18.47547,-15.66857 4.78224,-2.55285 7.4798,-3.27651 13.51633,-3.62596 9.18558,-0.53174 15.1685,1.82518 20.52836,8.08697 6.70418,7.83232 10.65555,24.24957 8.61909,35.81074 -0.9754,5.53748 -39.19957,103.97186 -44.40494,114.35104 -2.99183,5.96551 -12.3983,15.25502 -20.05184,19.8025 -5.94742,3.53375 -7.7357,4.09751 -14,4.41351 -4.55296,0.22967 -8.555,-0.15006 -10.93368,-1.03743 z m 345.09621,-2.96644 c -10.26809,-3.83981 -22.57127,-14.02628 -27.07741,-22.41886 -1.40232,-2.61178 -12.49354,-27.9896 -24.64715,-56.39515 -17.97218,-42.00479 -22.28555,-52.9726 -23.10494,-58.75 -2.66269,-18.77444 5.71871,-37.89018 18.45633,-42.09397 6.32376,-2.08703 16.97869,-0.85186 24.18784,2.80398 7.75178,3.93101 17.15074,12.56386 20.53042,18.85698 1.4265,2.65621 12.60031,28.21697 24.83069,56.80169 24.64434,57.59852 25.26601,59.56257 23.15362,73.14999 -2.86707,18.44168 -11.62206,28.21891 -25.99841,29.03399 -4.10697,0.23285 -8.08171,-0.14752 -10.33099,-0.98865 z M 422.5,687.41295 c -38.40437,-3.81388 -63.78724,-10.91341 -94.87788,-26.53713 -24.76589,-12.4454 -45.16708,-27.3398 -66.19798,-48.32949 C 241.36185,592.52334 228.61429,575.78573 216.12931,553.074 195.66021,515.83815 186,478.46162 186,436.5 c 0,-30.92036 4.8493,-57.48082 15.55885,-85.21852 26.62364,-68.95516 83.03344,-124.94707 151.8448,-150.71994 33.18626,-12.4297 70.69551,-17.68412 103.81791,-14.54315 61.94453,5.87415 116.30265,32.46223 160.77844,78.64124 34.11704,35.42357 56.64625,77.52703 66.53347,124.34037 4.52178,21.40936 5.81405,53.78876 3.03472,76.03801 C 681.98611,509.7239 664.6124,550.83904 635.1865,589 c -3.60489,4.675 -13.10908,15.05473 -21.12042,23.06608 -8.01135,8.01134 -18.39108,17.51553 -23.06608,21.12042 -37.36012,28.80837 -77.47649,46.09404 -121.5,52.35294 -10.08139,1.43329 -39.58878,2.60951 -47,1.87351 z M 28.5,639.59427 C 18.304925,637.07477 11.032353,631.97076 7.3868614,624.77673 5.1427089,620.34811 4.8490386,618.67945 5.153881,612.08874 5.6421407,601.53254 9.0958843,594.7293 18.9202,584.9716 L 26.5,577.4432 81.266948,554.16331 c 38.237372,-16.25364 56.648182,-23.58618 61.000002,-24.2947 12.23303,-1.99167 27.65758,1.67211 35.27749,8.37942 6.98313,6.1468 8.72654,10.39673 8.26644,20.15126 -0.50715,10.75195 -3.87753,17.63339 -13.31088,27.17739 l -7,7.08211 -53.5,22.83885 c -29.425,12.56137 -55.735568,23.43814 -58.467928,24.17061 -6.077077,1.62908 -18.286683,1.593 -25.032072,-0.074 z m 801,-6.33101 c -3.57791,-0.52128 -110.65184,-43.6254 -115.05275,-46.31611 -5.47671,-3.34846 -15.40549,-14.61624 -18.18889,-20.64184 -3.4479,-7.46415 -4.21717,-17.50617 -1.8216,-23.7789 2.0043,-5.24817 8.8997,-11.88441 15.11816,-14.54995 6.53929,-2.80307 16.75255,-4.3194 24.86197,-3.69118 6.29316,0.48752 13.21705,3.02586 62.08311,22.76003 30.25,12.21623 56.86926,23.49544 59.1539,25.06493 5.83216,4.00652 13.54184,12.94655 16.9161,19.61565 7.08284,13.999 2.36027,30.67758 -10.55158,37.26471 -7.34239,3.74581 -22.48147,5.73496 -32.51842,4.27266 z M 136.05309,348.26846 C 131.05593,347.33073 24.363163,303.65793 20.38821,300.92309 14.8847,297.13657 7.7938176,289.1309 3.8717673,282.27587 -0.48116339,274.66774 -1.2692836,264.65785 1.9174208,257.45378 4.6247729,251.33336 6.228275,249.52763 12.610052,245.4126 c 6.769801,-4.36523 18.967493,-6.91084 29.036123,-6.05973 6.440066,0.54438 13.410333,3.09715 62.054405,22.72662 30.13968,12.16234 56.221,22.98137 57.95849,24.04229 5.16805,3.15564 14.90114,14.27998 17.95463,20.52108 3.61443,7.38764 4.42857,17.33948 1.94954,23.83073 -1.99405,5.22132 -8.8917,11.88098 -15.03142,14.51277 -7.94364,3.40504 -21.84584,4.9021 -30.47873,3.2821 z m 581.7103,-5.30127 c -12.20185,-2.05459 -21.69752,-7.91533 -25.6626,-15.83898 -5.91075,-11.81181 -1.69289,-26.52666 11.38023,-39.70215 L 710.5,280.35213 764,257.50616 c 29.425,-12.56527 55.75,-23.47455 58.5,-24.24283 7.13266,-1.99267 22.33324,-1.1494 29.64482,1.64459 8.55307,3.26841 13.24799,7.15168 16.37587,13.54485 2.42363,4.95371 2.68468,6.43031 2.26699,12.82281 -0.67933,10.39673 -4.24685,17.36157 -13.705,26.75611 l -7.58268,7.5317 -54.80942,23.2804 c -60.92565,25.87828 -62.87498,26.48957 -76.92719,24.1234 z M 307,184.06287 c -9.76085,-2.98767 -22.65884,-13.29752 -27.18927,-21.7334 -1.4265,-2.65621 -12.60031,-28.21697 -24.83069,-56.80169 C 230.32201,47.897274 229.73008,46.0247 231.81468,32.244579 236.59217,0.66326809 263.67415,-6.5398159 287.56268,17.4171 l 7.06268,7.0829 23.75474,55.48845 c 25.85949,60.40491 26.13971,61.27165 24.51691,75.83314 -1.42207,12.76044 -7.73228,23.25828 -16.39701,27.27856 -4.17415,1.93673 -14.63122,2.453 -19.5,0.96272 z M 540.23,180.947 c -8.37237,-4.26617 -14.1776,-13.98528 -16.3941,-27.447 -2.04044,-12.39235 -1.31797,-14.80977 21.81662,-73 11.80777,-29.7 22.53197,-55.8 23.83155,-58 C 572.95068,16.631511 581.58159,8.6490151 589,4.4502415 c 14.70418,-8.3224759 31.61718,-4.18035673 38.38568,9.4009395 4.35756,8.743644 6.43681,22.27634 4.7893,31.170999 -1.66357,8.981363 -43.58082,113.40046 -47.86613,119.23822 -4.21817,5.74629 -11.54873,11.80248 -18.74966,15.49015 -7.25148,3.71355 -19.27479,4.28149 -25.32919,1.19645 z"
       id="path3524"
       inkscape:connector-curvature="0" />
  </g>
</svg>
